<?xml version="1.0" ?><svg id="Layer_2" style="enable-background:new 0 0 1000 1000;" version="1.1" viewBox="0 0 1000 1000" xml:space="preserve" xmlns="http://www.w3.org/2000/svg" xmlns:xlink="http://www.w3.org/1999/xlink"><path d="M284.353,608.065c7.629,0,13.858-5.995,14.228-13.532c0.013-0.236,0.019-0.474,0.019-0.712  c0-7.867-6.379-14.246-14.246-14.246c-7.867,0-14.246,6.379-14.246,14.246c0,0.238,0.007,0.476,0.019,0.712  C270.496,602.07,276.725,608.065,284.353,608.065z" style="fill:#231F20;"/><path d="M729.354,579.575c-7.867,0-14.246,6.379-14.246,14.246c0,0.238,0.007,0.476,0.019,0.712  c0.37,7.537,6.599,13.532,14.228,13.532s13.858-5.995,14.228-13.532c0.013-0.236,0.018-0.474,0.018-0.712  C743.6,585.954,737.221,579.575,729.354,579.575z" style="fill:#231F20;"/><path d="M172.624,597.235h43.569c1.77,36.11,31.61,64.83,68.16,64.83s66.391-28.72,68.16-64.83h308.68  c1.771,36.11,31.61,64.83,68.16,64.83s66.391-28.72,68.16-64.83h35.71c4.01,0,7.65-1.8,10.28-4.7c2.63-2.9,4.26-6.9,4.26-11.33  c0-3.81-1.229-7.5-3.479-10.4l-7.41-9.57c16.55-37.48,10.75-91.19,5.229-122.11c-3.17-17.81-12.899-33.38-26.93-42.87  c-16.811-11.38-45.44-26.93-92.63-43.51c-93.92-32.99-259.95-4.32-292.641,22.5c-26.05,21.36-77.59,72-142.92,79.5  c-33.949,3.89-63.02,13.82-83.12,22.47c-17.89,7.69-29.859,26.44-30.51,47.59l-0.71,22.93l-11.33,8.33  c-2.84,2.09-5.109,4.88-6.67,8.1c-1.56,3.21-2.41,6.85-2.41,10.6C152.233,587.175,161.363,597.235,172.624,597.235z   M772.464,597.235c-1.74,22.25-20.41,39.83-43.11,39.83s-41.37-17.58-43.109-39.83c-0.091-1.12-0.141-2.26-0.141-3.41  c0-23.85,19.4-43.25,43.25-43.25c23.851,0,43.25,19.4,43.25,43.25C772.604,594.975,772.554,596.115,772.464,597.235z   M827.711,487.775c3.336,0.69,5.771,3.549,5.956,6.95c0.821,15.131-1.424,30.716-2.923,39.046c-0.641,3.558-3.738,6.137-7.353,6.137  h-4.998c-4.402,0-7.851-3.787-7.439-8.17l3.002-32.026c0.15-1.604,0.815-3.116,1.895-4.311l4.802-5.316  C822.429,488.117,825.115,487.238,827.711,487.775z M681.14,418.279l5.027-23.402c2.199-10.237,10.731-17.901,21.145-18.993  l4.264-0.448c0.896,0.297,1.808,0.588,2.683,0.895c46.205,16.234,72.761,31.053,86.901,40.625  c8.388,5.674,14.338,15.349,16.331,26.549c0.243,1.362,0.478,2.718,0.703,4.069H704.81c-5.169,0-10.201-1.654-14.362-4.72  C682.782,437.207,679.14,427.589,681.14,418.279z M577.688,501.908h-25c-4.695,0-8.5-3.806-8.5-8.5s3.805-8.5,8.5-8.5h25  c4.694,0,8.5,3.806,8.5,8.5S582.382,501.908,577.688,501.908z M435.676,403.089c3.835-3.277,7.146-6.108,10.079-8.512  c4.355-3.573,22.641-12.418,60.703-20.347c31.671-6.597,66.803-10.498,100.046-11.177l-11.623,66.681  c-2.934,16.83-17.209,29.335-34.278,30.028l-173.586,7.045c-9.886,0.401-19.4-3.256-26.45-9.948  C392.087,440.323,417.549,418.579,435.676,403.089z M284.353,550.575c23.851,0,43.25,19.4,43.25,43.25c0,1.15-0.05,2.29-0.14,3.41  c-1.74,22.25-20.41,39.83-43.11,39.83c-22.7,0-41.37-17.58-43.109-39.83c-0.091-1.12-0.141-2.26-0.141-3.41  C241.104,569.975,260.504,550.575,284.353,550.575z M199.52,502.575c6.812,0,12.333,8.357,12.333,18.667  c0,10.309-5.521,18.667-12.333,18.667c-6.811,0-12.333-8.357-12.333-18.667C187.188,510.932,192.709,502.575,199.52,502.575z" style="fill:#231F20;"/></svg>